<svg width="29" height="29" viewBox="0 0 29 29" fill="white" xmlns="http://www.w3.org/2000/svg">
<path d="M14.5 0C18.3456 0 22.0338 1.52767 24.753 4.24695C27.4723 6.96623 29 10.6544 29 14.5C29 18.3456 27.4723 22.0338 24.753 24.753C22.0338 27.4723 18.3456 29 14.5 29C10.6544 29 6.96623 27.4723 4.24695 24.753C1.52767 22.0338 0 18.3456 0 14.5C0 10.6544 1.52767 6.96623 4.24695 4.24695C6.96623 1.52767 10.6544 0 14.5 0ZM2.71875 14.5C2.71875 17.6246 3.95999 20.6212 6.1694 22.8306C8.37881 25.04 11.3754 26.2812 14.5 26.2812C17.6246 26.2812 20.6212 25.04 22.8306 22.8306C25.04 20.6212 26.2812 17.6246 26.2812 14.5C26.2812 11.3754 25.04 8.37881 22.8306 6.1694C20.6212 3.95999 17.6246 2.71875 14.5 2.71875C11.3754 2.71875 8.37881 3.95999 6.1694 6.1694C3.95999 8.37881 2.71875 11.3754 2.71875 14.5ZM11.5619 9.47394L19.2904 14.1121C19.3572 14.1525 19.4125 14.2094 19.4508 14.2773C19.4892 14.3453 19.5093 14.422 19.5093 14.5C19.5093 14.578 19.4892 14.6547 19.4508 14.7227C19.4125 14.7906 19.3572 14.8475 19.2904 14.8879L11.5619 19.5261C11.4932 19.5675 11.4147 19.5899 11.3345 19.591C11.2543 19.5921 11.1752 19.5719 11.1053 19.5325C11.0355 19.493 10.9773 19.4358 10.9369 19.3665C10.8964 19.2972 10.875 19.2184 10.875 19.1382V9.86362C10.8747 9.78324 10.8958 9.70423 10.9362 9.6347C10.9765 9.56517 11.0346 9.50762 11.1045 9.46795C11.1745 9.42829 11.2537 9.40794 11.3341 9.40899C11.4144 9.41004 11.4931 9.43246 11.5619 9.47394Z" fill="inherit"/>
</svg>
