<svg width="29" height="29" viewBox="0 0 29 29" fill="none" xmlns="http://www.w3.org/2000/svg">
<path d="M26.5832 14.4998C26.5832 21.1735 21.1735 26.5832 14.4998 26.5832C7.82621 26.5832 2.4165 21.1735 2.4165 14.4998C2.4165 7.82621 7.82621 2.4165 14.4998 2.4165V4.83317C12.2267 4.83335 10.0263 5.63461 8.28528 7.09617C6.54427 8.55773 5.37402 10.5861 4.98015 12.8249C4.58627 15.0637 4.99397 17.3696 6.1316 19.3376C7.26923 21.3057 9.06402 22.8098 11.2006 23.5858C13.3372 24.3618 15.679 24.36 17.8144 23.5808C19.9498 22.8015 21.7423 21.2946 22.877 19.3249C24.0116 17.3551 24.4158 15.0486 24.0185 12.8104C23.6212 10.5722 22.4479 8.54562 20.7046 7.08671L18.1248 9.6665V2.4165H25.3748L22.418 5.3733C23.7267 6.50646 24.776 7.90808 25.4947 9.48289C26.2134 11.0577 26.5846 12.7688 26.5832 14.4998Z" fill="inherit"/>
</svg>
